<?xml version="1.0" standalone="no"?>
<!DOCTYPE svg PUBLIC "-//W3C//DTD SVG 20010904//EN"
 "http://www.w3.org/TR/2001/REC-SVG-20010904/DTD/svg10.dtd">
<svg version="1.0" xmlns="http://www.w3.org/2000/svg"
 width="1004.000000pt" height="1004.000000pt" viewBox="0 0 1004.000000 1004.000000"
 preserveAspectRatio="xMidYMid meet">
<metadata>
Created by potrace 1.14, written by Peter Selinger 2001-2017
</metadata>
<g transform="translate(0.000000,1004.000000) scale(0.100000,-0.100000)"
fill="#000000" stroke="none">
<path d="M5654 8528 c-15 -24 -46 -72 -69 -108 -35 -55 -329 -530 -375 -605
-36 -59 -344 -556 -520 -840 -106 -170 -217 -348 -245 -395 -89 -145 -466
-753 -490 -790 -12 -19 -129 -208 -260 -420 -131 -212 -251 -405 -267 -430
-15 -25 -50 -80 -76 -123 -41 -67 -262 -424 -434 -701 -31 -50 -84 -136 -118
-191 -34 -55 -128 -208 -211 -340 -82 -132 -165 -265 -183 -295 -18 -30 -80
-129 -136 -220 -57 -91 -121 -194 -142 -230 -21 -36 -66 -107 -98 -159 -33
-51 -60 -95 -60 -98 0 -3 -13 -23 -29 -46 -16 -23 -165 -262 -331 -532 -167
-269 -310 -500 -318 -512 l-14 -23 1538 0 1539 0 520 838 c286 460 584 940
661 1065 l142 228 1 -1038 c0 -571 0 -1050 0 -1065 l1 -28 1540 0 1540 0 1 23
c0 28 0 7048 0 7065 -1 9 -316 12 -1541 12 l-1540 0 -26 -42z"/>
</g>
</svg>
